<svg preserveAspectRatio="none" width="100%" height="100%" overflow="visible" style="display: block;" viewBox="0 0 20 20" fill="none" xmlns="http://www.w3.org/2000/svg">
<g id="Icon">
<path id="Vector" d="M12.4248 4.83793C13.0342 4.68851 13.6749 4.72986 14.2607 4.9561C14.8464 5.18233 15.3507 5.58337 15.7061 6.10649C16.0616 6.62999 16.2511 7.25134 16.248 7.88676V7.88969C16.248 9.16548 15.4248 10.1728 14.3652 11.2403L10.5303 14.9786L10.4863 15.0254C10.4254 15.0959 10.35 15.1519 10.2666 15.1905C10.1833 15.229 10.0932 15.2494 10.002 15.25C9.91073 15.2506 9.8201 15.2318 9.73633 15.1944C9.65243 15.1569 9.57643 15.101 9.51465 15.0313L9.47754 14.9922L5.62207 11.2325C4.56594 10.1676 3.74826 9.16958 3.74805 7.89067C3.74806 7.25642 3.93886 6.63697 4.29492 6.11527C4.65099 5.59363 5.15529 5.19368 5.74023 4.96781C6.32512 4.74197 6.96454 4.70095 7.57324 4.84867C8.18177 4.99647 8.73277 5.3265 9.15234 5.79692C9.15557 5.80053 9.15882 5.80411 9.16211 5.80766C9.26863 5.9224 9.39813 6.0143 9.54199 6.07719C9.68579 6.14001 9.84093 6.17289 9.99805 6.17289C10.1552 6.17289 10.3103 6.14002 10.4541 6.07719C10.598 6.0143 10.7275 5.9224 10.834 5.80766C10.8381 5.8032 10.8427 5.79854 10.8467 5.79399C11.2649 5.32073 11.8155 4.98736 12.4248 4.83793Z" stroke="var(--stroke-0, #FAFAFA)" stroke-opacity="0.9" stroke-width="1.5" stroke-linecap="round" stroke-linejoin="round"/>
</g>
</svg>
