<svg preserveAspectRatio="none" width="100%" height="100%" overflow="visible" style="display: block;" viewBox="0 0 20 20" fill="none" xmlns="http://www.w3.org/2000/svg">
<g id="Icon">
<path id="Vector" d="M6.95418 16.9874C13.0462 16.9874 16.3266 11.9665 16.3266 7.61499C16.3266 7.4811 16.3266 7.34721 16.3266 7.21332C16.996 6.7447 17.5316 6.14219 18.0002 5.53968C17.3977 5.80746 16.7952 6.0083 16.1257 6.07524C16.7952 5.67357 17.3307 5.00411 17.5985 4.26771C16.9291 4.66938 16.2596 4.93717 15.5232 5.07106C14.9207 4.4016 14.0504 3.99993 13.1132 3.99993C11.3056 3.99993 9.83284 5.47273 9.83284 7.28026C9.83284 7.54805 9.83284 7.81583 9.89978 8.01666C7.08807 7.81583 4.67803 6.47692 3.07133 4.46855C2.7366 5.00411 2.60271 5.53968 2.60271 6.14219C2.60271 7.28026 3.20522 8.28445 4.07552 8.88696C3.53995 8.88696 3.00439 8.75307 2.60271 8.48528C2.60271 8.48528 2.60271 8.48528 2.60271 8.55223C2.60271 10.1589 3.74079 11.4978 5.28054 11.7656C5.01275 11.8326 4.74497 11.8995 4.41024 11.8995C4.20941 11.8995 4.00857 11.8995 3.80773 11.8326C4.20941 13.1715 5.41443 14.1087 6.88723 14.1087C5.74916 14.979 4.3433 15.5146 2.80355 15.5146C2.53577 15.5146 2.26798 15.5146 2.0002 15.4476C3.40606 16.3849 5.14664 16.9874 6.95418 16.9874Z" stroke="var(--stroke-0, #FAFAFA)" stroke-opacity="0.9" stroke-width="1.21757" stroke-linecap="round" stroke-linejoin="round"/>
</g>
</svg>
