<svg preserveAspectRatio="none" width="100%" height="100%" overflow="visible" style="display: block;" viewBox="0 0 20 20" fill="none" xmlns="http://www.w3.org/2000/svg">
<g id="Icon">
<path id="Vector" d="M10 2C12.2 2 12.4667 2 13.3333 2C14.2 2.06667 14.7333 2.2 15.2667 2.4C15.8 2.6 16.2 2.86667 16.6667 3.33333C17.1333 3.8 17.4 4.26667 17.5333 4.8C17.7333 5.33333 17.8667 5.86667 17.9333 6.73333C18 7.53333 18 7.8 18 10C18 12.2 18 12.4667 17.9333 13.2667C17.8667 14.1333 17.7333 14.6667 17.5333 15.2C17.3333 15.7333 17.0667 16.1333 16.6 16.6C16.2 17.0667 15.7333 17.3333 15.2 17.5333C14.6667 17.7333 14.1333 17.8667 13.2667 17.9333C12.4667 18 12.2 18 10 18C7.8 18 7.53333 18 6.66667 18C5.8 17.9333 5.26667 17.8 4.73333 17.6C4.2 17.4 3.8 17.1333 3.33333 16.6667C2.86667 16.2 2.6 15.7333 2.46667 15.2C2.26667 14.6667 2.13333 14.1333 2.06667 13.2667C2 12.4667 2 12.2 2 10C2 7.8 2 7.53333 2.06667 6.73333C2.06667 5.86667 2.2 5.26667 2.4 4.73333C2.6 4.26667 2.86667 3.8 3.33333 3.33333C3.8 2.86667 4.26667 2.6 4.73333 2.4C5.26667 2.2 5.86667 2.06667 6.73333 2.06667C7.53333 2 7.8 2 10 2ZM10 3.46667C7.86667 3.46667 7.6 3.46667 6.8 3.46667C6 3.53333 5.53333 3.66667 5.26667 3.73333C4.93333 3.93333 4.66667 4.06667 4.33333 4.33333C4.06667 4.6 3.86667 4.86667 3.73333 5.26667C3.66667 5.53333 3.53333 6 3.53333 6.8C3.46667 7.6 3.46667 7.86667 3.46667 10C3.46667 12.1333 3.46667 12.3333 3.53333 13.2C3.53333 13.9333 3.66667 14.4 3.8 14.6667C3.93333 15.0667 4.13333 15.3333 4.4 15.6C4.66667 15.8667 4.93333 16.0667 5.33333 16.2C5.6 16.3333 6 16.4 6.8 16.4667C7.6 16.5333 7.86667 16.5333 10 16.5333C12.1333 16.5333 12.3333 16.5333 13.2 16.4667C13.9333 16.4667 14.4 16.3333 14.6667 16.2C15.0667 16.0667 15.3333 15.8667 15.6 15.6C15.8667 15.3333 16.0667 15.0667 16.2 14.6667C16.3333 14.4 16.4 14 16.4667 13.2C16.5333 12.4 16.5333 12.1333 16.5333 10C16.5333 7.86667 16.5333 7.66667 16.4667 6.8C16.4667 6.06667 16.3333 5.6 16.2 5.33333C16.0667 4.93333 15.8667 4.66667 15.6 4.4C15.3333 4.13333 15.0667 3.93333 14.6667 3.8C14.4 3.66667 14 3.6 13.2 3.53333C12.4 3.46667 12.1333 3.46667 10 3.46667ZM10 5.86667C12.2667 5.86667 14.1333 7.73333 14.1333 10C14.1333 12.2667 12.2667 14.1333 10 14.1333C7.73333 14.1333 5.86667 12.2667 5.86667 10C5.86667 7.73333 7.73333 5.86667 10 5.86667ZM10 12.6667C11.4667 12.6667 12.6667 11.4667 12.6667 10C12.6667 8.53333 11.4667 7.33333 10 7.33333C8.53333 7.33333 7.33333 8.53333 7.33333 10C7.33333 11.4667 8.53333 12.6667 10 12.6667ZM14.2667 6.66667C13.7512 6.66667 13.3333 6.2488 13.3333 5.73333C13.3333 5.21787 13.7512 4.8 14.2667 4.8C14.7821 4.8 15.2 5.21787 15.2 5.73333C15.2 6.2488 14.7821 6.66667 14.2667 6.66667Z" fill="var(--fill-0, #FAFAFA)" fill-opacity="0.75"/>
</g>
</svg>
