<svg preserveAspectRatio="none" width="100%" height="100%" overflow="visible" style="display: block;" viewBox="0 0 20 20" fill="none" xmlns="http://www.w3.org/2000/svg">
<g id="Icon">
<path id="Vector" d="M8.01016 10.906L11.9943 13.294M11.9885 6.70605L8.01016 9.09405M15.2493 5.80004C15.2493 6.79415 14.4658 7.60004 13.4993 7.60004C12.5329 7.60004 11.7493 6.79415 11.7493 5.80004C11.7493 4.80593 12.5329 4.00004 13.4993 4.00004C14.4658 4.00004 15.2493 4.80593 15.2493 5.80004ZM8.24935 10C8.24935 10.9942 7.46585 11.8 6.49935 11.8C5.53285 11.8 4.74935 10.9942 4.74935 10C4.74935 9.00593 5.53285 8.20004 6.49935 8.20004C7.46585 8.20004 8.24935 9.00593 8.24935 10ZM15.2493 14.2C15.2493 15.1942 14.4658 16 13.4993 16C12.5329 16 11.7493 15.1942 11.7493 14.2C11.7493 13.2059 12.5329 12.4 13.4993 12.4C14.4658 12.4 15.2493 13.2059 15.2493 14.2Z" stroke="var(--stroke-0, #FAFAFA)" stroke-opacity="0.9" stroke-width="1.5" stroke-linecap="round" stroke-linejoin="round"/>
</g>
</svg>
