<svg preserveAspectRatio="none" width="100%" height="100%" overflow="visible" style="display: block;" viewBox="0 0 20 20" fill="none" xmlns="http://www.w3.org/2000/svg">
<g id="Icon">
<path id="arrow" d="M4.46967 14.4697C4.17678 14.7626 4.17678 15.2374 4.46967 15.5303C4.76256 15.8232 5.23744 15.8232 5.53033 15.5303L5 15L4.46967 14.4697ZM15.75 5C15.75 4.58579 15.4142 4.25 15 4.25H8.25C7.83579 4.25 7.5 4.58579 7.5 5C7.5 5.41421 7.83579 5.75 8.25 5.75H14.25V11.75C14.25 12.1642 14.5858 12.5 15 12.5C15.4142 12.5 15.75 12.1642 15.75 11.75V5ZM5 15L5.53033 15.5303L15.5303 5.53033L15 5L14.4697 4.46967L4.46967 14.4697L5 15Z" fill="var(--stroke-0, #FAFAFA)" fill-opacity="0.9"/>
</g>
</svg>
