<svg preserveAspectRatio="none" width="100%" height="100%" overflow="visible" style="display: block;" viewBox="0 0 78.3728 35.6593" fill="none" xmlns="http://www.w3.org/2000/svg">
<g id="avenue ticket">
<path d="M5.89201 0.52637C8.69932 0.52637 11.8575 1.50392 11.8575 5.4141V11.6804C11.8575 12.3321 12.0581 12.5828 12.5594 12.5828C12.5594 12.5828 12.9354 12.5828 13.1359 12.2319C13.1359 12.8585 12.2335 14.0366 10.3536 14.0366C9.0001 14.0366 8.04762 13.4099 7.7719 12.1316C6.94475 13.3849 5.59122 14.0366 4.08731 14.0366C1.7813 14.0366 0.00166753 12.5326 0.00166753 10.2768C0.00166753 5.66475 7.34579 6.16606 7.52125 4.08564C7.01994 2.43133 5.69149 1.8799 4.8142 1.8799C4.46329 1.8799 4.21263 1.95509 4.08731 2.05535C4.51342 2.40627 4.8142 2.9577 4.8142 3.58433C4.8142 4.63708 3.93692 5.51436 2.83404 5.51436C1.73117 5.51436 0.853887 4.63708 0.853887 3.48407C0.853887 1.75457 2.73378 0.52637 5.89201 0.52637ZM7.69671 8.99843V5.94047C6.44344 6.84282 4.1625 7.26893 4.1625 9.42454C4.1625 10.6778 4.93953 11.4548 5.74162 11.4548C6.64397 11.4548 7.54631 10.4773 7.69671 8.99843Z" fill="url(#paint0_linear_962_14444)"/>
<path d="M12.4013 1.50392L12.1758 1.32846V0.802089H17.3643V8.62246C17.3643 11.0287 17.7152 12.0815 19.0436 12.0815C21.4499 12.0815 23.0541 8.72272 22.9789 3.63446C21.5502 3.80992 20.4724 2.90757 20.4724 1.77963C20.4724 0.802089 21.2995 0 22.4275 0C23.4301 0 24.7084 0.626631 24.4828 4.41149C24.2071 9.80052 21.3747 14.0366 17.5397 14.0366C14.9079 14.0366 13.2285 12.0815 13.2285 8.87311V3.10809C13.2285 2.50653 12.9026 1.85483 12.4013 1.50392Z" fill="url(#paint1_linear_962_14444)"/>
<path d="M31.8729 0.52637C35.5826 0.52637 37.2119 2.55666 37.2119 4.8376C37.2119 7.66998 34.7805 9.80052 31.4719 9.80052C30.7951 9.80052 30.0933 9.70026 29.3664 9.52481C29.9931 10.753 31.0959 11.4548 32.5246 11.4548C34.9309 11.4548 36.4098 9.47467 36.6604 8.59739H37.1868C36.3847 11.8559 34.2542 14.0366 30.9205 14.0366C27.2609 14.0366 24.579 11.4548 24.579 7.49452C24.579 3.33368 27.5116 0.52637 31.8729 0.52637ZM28.9904 8.72272C34.2542 7.2188 34.1539 2.10548 31.7476 2.10548C30.2437 2.10548 28.7398 4.01044 28.7398 6.79269C28.7398 7.49452 28.8401 8.14621 28.9904 8.72272Z" fill="url(#paint2_linear_962_14444)"/>
<path d="M46.6689 11.154V5.43917C46.6689 3.6094 45.9671 2.50653 44.7138 2.50653C43.5357 2.50653 42.6835 3.58433 42.5081 5.23864V11.4799C42.5081 12.0815 42.859 12.7081 43.3102 13.0841L43.5608 13.2595V13.7859H37.3196V13.2595L37.5451 13.0841C38.0465 12.7081 38.3723 12.0815 38.3723 11.4799V3.88512C38.3723 3.28355 38.0465 2.63185 37.5451 2.28094L37.3196 2.10548V1.57911L41.4804 0.802089H42.5081V2.78225C43.4104 1.37859 44.9143 0.52637 46.694 0.52637C49.376 0.52637 50.8297 2.40627 50.8297 5.18851V11.6804C50.8297 12.3321 51.0303 12.5828 51.5316 12.5828C51.5316 12.5828 51.9075 12.5828 52.1331 12.2319C52.1331 12.8585 51.2057 14.0366 49.3258 14.0366C47.6715 14.0366 46.6689 13.1342 46.6689 11.154Z" fill="url(#paint3_linear_962_14444)"/>
<path d="M64.7913 11.7055C64.7913 12.3321 64.9918 12.5828 65.4931 12.5828C65.4931 12.5828 65.8691 12.5828 66.0947 12.2319C66.0947 12.8585 65.1673 14.0366 63.2874 14.0366C61.8085 14.0366 60.831 13.3097 60.6555 11.7807C59.7782 13.1843 58.2743 14.0366 56.4446 14.0366C53.7876 14.0366 52.3338 12.1817 52.3338 9.39948V3.88512C52.3338 3.28355 52.008 2.63185 51.5067 2.28094L51.2811 2.10548V1.57911L55.4419 0.802089H56.4696V9.12376C56.4696 10.9786 57.1714 12.0815 58.4247 12.0815C59.6028 12.0815 60.455 11.0538 60.6305 9.42454V3.6846C60.5553 3.13316 60.2795 2.58172 59.8284 2.28094L59.6028 2.10548V1.57911L63.7386 0.802089H64.7913V11.7055Z" fill="url(#paint4_linear_962_14444)"/>
<path d="M73.0339 0.52637C76.7435 0.52637 78.3728 2.55666 78.3728 4.8376C78.3728 7.66998 75.9414 9.80052 72.6328 9.80052C71.956 9.80052 71.2542 9.70026 70.5273 9.52481C71.1539 10.753 72.2568 11.4548 73.6856 11.4548C76.0918 11.4548 77.5707 9.47467 77.8213 8.59739H78.3477C77.5456 11.8559 75.4151 14.0366 72.0814 14.0366C68.4218 14.0366 65.7399 11.4548 65.7399 7.49452C65.7399 3.33368 68.6725 0.52637 73.0339 0.52637ZM70.1513 8.72272C75.4151 7.2188 75.3148 2.10548 72.9085 2.10548C71.4046 2.10548 69.9007 4.01044 69.9007 6.79269C69.9007 7.49452 70.001 8.14621 70.1513 8.72272Z" fill="url(#paint5_linear_962_14444)"/>
<path d="M1.32533 32.4165V22.5188H0V20.7705H1.32533C3.13003 20.7705 4.22977 19.8681 4.22977 18.148H5.97807V20.7705H7.64178V22.5188H5.97807V33.0086C5.97807 33.7418 6.23185 34.0238 6.76762 34.0238C6.76762 34.0238 7.2188 34.0238 7.44439 33.629C7.44439 34.3339 6.42924 35.6593 4.28616 35.6593C2.42507 35.6593 1.32533 34.6441 1.32533 32.4165Z" fill="url(#paint6_linear_962_14444)"/>
<path d="M14.8388 34.5877L15.1208 34.7851V35.3773H8.09934V34.7851L8.35312 34.5877C8.91709 34.1648 9.28367 33.4598 9.28367 32.783V24.2389C9.28367 23.5621 8.91709 22.829 8.35312 22.4342L8.09934 22.2368V21.6446L12.7803 20.7705H13.9364V32.783C13.9364 33.4598 14.3312 34.1648 14.8388 34.5877Z" fill="url(#paint7_linear_962_14444)"/>
<path d="M23.4294 20.4603C26.7286 20.4603 29.1819 22.1804 29.1819 24.3235C29.1819 25.818 28.0539 26.9178 26.644 26.9178C25.2059 26.9178 24.0779 25.818 24.0779 24.4081C24.0779 23.5903 24.4445 22.8854 25.0085 22.4342C24.8675 22.3778 24.4727 22.2368 23.9369 22.2368C21.9349 22.2368 20.243 24.3799 20.243 27.5099C20.243 30.6118 21.9067 32.7548 24.5009 32.7548C27.208 32.7548 28.8717 30.5272 29.1537 29.5402H29.7458C28.9845 32.642 27.1234 35.6593 23.0064 35.6593C19.1714 35.6593 15.562 32.9804 15.562 28.2995C15.562 23.9005 18.7202 20.4603 23.4294 20.4603Z" fill="url(#paint8_linear_962_14444)"/>
<path d="M38.9312 34.3339L36.196 27.5663L35.6884 27.9893V32.783C35.6884 33.4598 36.0832 34.1648 36.5908 34.5877L36.8728 34.7851V35.3773H29.8513V34.7851L30.1051 34.5877C30.6691 34.1648 31.0357 33.4598 31.0357 32.783V19.9684C31.0357 19.2916 30.6691 18.5585 30.1051 18.1637L29.8513 17.9381V17.3742L34.5323 16.5H35.6884V26.2128L39.6926 22.97C40.2284 22.5188 40.2848 21.8984 39.8054 21.3909L39.7772 21.3627V20.7705H44.5709V21.3627L43.7814 21.7292C43.1892 22.0112 42.3997 22.5188 41.8639 22.97L37.8033 26.2692L37.8597 26.2974C39.6926 26.8614 41.3845 28.4405 42.1177 30.2452L43.1892 32.8676C43.443 33.5162 44.0352 34.1084 44.5991 34.4467L45.2759 34.7851V35.3773H40.4822C39.8054 35.3773 39.2132 34.9543 38.9312 34.3339Z" fill="url(#paint9_linear_962_14444)"/>
<path d="M52.5176 20.4603C56.691 20.4603 58.5239 22.7444 58.5239 25.3104C58.5239 28.4969 55.7886 30.8937 52.0664 30.8937C51.3051 30.8937 50.5155 30.7809 49.6978 30.5836C50.4027 31.9653 51.6435 32.7548 53.2508 32.7548C55.9578 32.7548 57.6215 30.5272 57.9035 29.5402H58.4957C57.5933 33.206 55.1965 35.6593 51.4461 35.6593C47.3291 35.6593 44.3119 32.7548 44.3119 28.2995C44.3119 23.6185 47.6111 20.4603 52.5176 20.4603ZM49.2748 29.6812C55.1965 27.9893 55.0837 22.2368 52.3766 22.2368C50.6847 22.2368 48.9928 24.3799 48.9928 27.5099C48.9928 28.2995 49.1056 29.0326 49.2748 29.6812Z" fill="url(#paint10_linear_962_14444)"/>
<path d="M60.3933 32.4165V22.5188H59.068V20.7705H60.3933C62.198 20.7705 63.2978 19.8681 63.2978 18.148H65.0461V20.7705H66.7098V22.5188H65.0461V33.0086C65.0461 33.7418 65.2999 34.0238 65.8356 34.0238C65.8356 34.0238 66.2868 34.0238 66.5124 33.629C66.5124 34.3339 65.4973 35.6593 63.3542 35.6593C61.4931 35.6593 60.3933 34.6441 60.3933 32.4165Z" fill="url(#paint11_linear_962_14444)"/>
</g>
<defs>
<linearGradient id="paint0_linear_962_14444" x1="40.4849" y1="-0.313239" x2="40.4849" y2="37.2847" gradientUnits="userSpaceOnUse">
<stop stop-color="#FAFAFA"/>
<stop offset="1" stop-color="#E5E5E5"/>
</linearGradient>
<linearGradient id="paint1_linear_962_14444" x1="40.4849" y1="-0.313239" x2="40.4849" y2="37.2847" gradientUnits="userSpaceOnUse">
<stop stop-color="#FAFAFA"/>
<stop offset="1" stop-color="#E5E5E5"/>
</linearGradient>
<linearGradient id="paint2_linear_962_14444" x1="40.4849" y1="-0.313239" x2="40.4849" y2="37.2847" gradientUnits="userSpaceOnUse">
<stop stop-color="#FAFAFA"/>
<stop offset="1" stop-color="#E5E5E5"/>
</linearGradient>
<linearGradient id="paint3_linear_962_14444" x1="40.4849" y1="-0.313239" x2="40.4849" y2="37.2847" gradientUnits="userSpaceOnUse">
<stop stop-color="#FAFAFA"/>
<stop offset="1" stop-color="#E5E5E5"/>
</linearGradient>
<linearGradient id="paint4_linear_962_14444" x1="40.4849" y1="-0.313239" x2="40.4849" y2="37.2847" gradientUnits="userSpaceOnUse">
<stop stop-color="#FAFAFA"/>
<stop offset="1" stop-color="#E5E5E5"/>
</linearGradient>
<linearGradient id="paint5_linear_962_14444" x1="40.4849" y1="-0.313239" x2="40.4849" y2="37.2847" gradientUnits="userSpaceOnUse">
<stop stop-color="#FAFAFA"/>
<stop offset="1" stop-color="#E5E5E5"/>
</linearGradient>
<linearGradient id="paint6_linear_962_14444" x1="40.4849" y1="-0.313239" x2="40.4849" y2="37.2847" gradientUnits="userSpaceOnUse">
<stop stop-color="#FAFAFA"/>
<stop offset="1" stop-color="#E5E5E5"/>
</linearGradient>
<linearGradient id="paint7_linear_962_14444" x1="40.4849" y1="-0.313239" x2="40.4849" y2="37.2847" gradientUnits="userSpaceOnUse">
<stop stop-color="#FAFAFA"/>
<stop offset="1" stop-color="#E5E5E5"/>
</linearGradient>
<linearGradient id="paint8_linear_962_14444" x1="40.4849" y1="-0.313239" x2="40.4849" y2="37.2847" gradientUnits="userSpaceOnUse">
<stop stop-color="#FAFAFA"/>
<stop offset="1" stop-color="#E5E5E5"/>
</linearGradient>
<linearGradient id="paint9_linear_962_14444" x1="40.4849" y1="-0.313239" x2="40.4849" y2="37.2847" gradientUnits="userSpaceOnUse">
<stop stop-color="#FAFAFA"/>
<stop offset="1" stop-color="#E5E5E5"/>
</linearGradient>
<linearGradient id="paint10_linear_962_14444" x1="40.4849" y1="-0.313239" x2="40.4849" y2="37.2847" gradientUnits="userSpaceOnUse">
<stop stop-color="#FAFAFA"/>
<stop offset="1" stop-color="#E5E5E5"/>
</linearGradient>
<linearGradient id="paint11_linear_962_14444" x1="40.4849" y1="-0.313239" x2="40.4849" y2="37.2847" gradientUnits="userSpaceOnUse">
<stop stop-color="#FAFAFA"/>
<stop offset="1" stop-color="#E5E5E5"/>
</linearGradient>
</defs>
</svg>
