<svg preserveAspectRatio="none" width="100%" height="100%" overflow="visible" style="display: block;" viewBox="0 0 52.2485 23.7728" fill="none" xmlns="http://www.w3.org/2000/svg">
<g id="avenue ticket">
<path d="M3.92801 0.350913C5.79955 0.350913 7.90503 1.00261 7.90503 3.6094V7.78695C7.90503 8.22141 8.03871 8.38851 8.37292 8.38851C8.37292 8.38851 8.62357 8.38851 8.75725 8.15457C8.75725 8.57232 8.15568 9.3577 6.90242 9.3577C6.00007 9.3577 5.36508 8.93995 5.18127 8.08773C4.62983 8.92324 3.72748 9.3577 2.72487 9.3577C1.18753 9.3577 0.00111169 8.35509 0.00111169 6.85118C0.00111169 3.7765 4.8972 4.11071 5.01417 2.72376C4.67996 1.62089 3.79432 1.25326 3.20947 1.25326C2.97552 1.25326 2.80842 1.30339 2.72487 1.37023C3.00895 1.60418 3.20947 1.9718 3.20947 2.38956C3.20947 3.09138 2.62461 3.67624 1.88936 3.67624C1.15411 3.67624 0.569258 3.09138 0.569258 2.32272C0.569258 1.16971 1.82252 0.350913 3.92801 0.350913ZM5.13114 5.99896V3.96031C4.29563 4.56188 2.775 4.84595 2.775 6.28303C2.775 7.11854 3.29302 7.63655 3.82774 7.63655C4.42931 7.63655 5.03088 6.98486 5.13114 5.99896Z" fill="url(#paint0_linear_962_14434)"/>
<path d="M8.26756 1.00261L8.11717 0.88564V0.534726H11.5762V5.7483C11.5762 7.35248 11.8101 8.05431 12.6958 8.05431C14.2999 8.05431 15.3694 5.81514 15.3193 2.42298C14.3668 2.53995 13.6482 1.93838 13.6482 1.18642C13.6482 0.534726 14.1997 0 14.9516 0C15.62 0 16.4723 0.417754 16.3219 2.94099C16.1381 6.53368 14.2498 9.3577 11.6931 9.3577C9.93858 9.3577 8.819 8.05431 8.819 5.9154V2.07206C8.819 1.67102 8.60177 1.23655 8.26756 1.00261Z" fill="url(#paint1_linear_962_14434)"/>
<path d="M21.2486 0.350913C23.7217 0.350913 24.8079 1.70444 24.8079 3.22507C24.8079 5.11332 23.187 6.53368 20.9813 6.53368C20.5301 6.53368 20.0622 6.46684 19.5776 6.34987C19.9954 7.16867 20.7306 7.63655 21.6831 7.63655C23.2873 7.63655 24.2732 6.31645 24.4403 5.73159H24.7912C24.2565 7.90392 22.8361 9.3577 20.6136 9.3577C18.174 9.3577 16.386 7.63655 16.386 4.99635C16.386 2.22245 18.3411 0.350913 21.2486 0.350913ZM19.327 5.81514C22.8361 4.81253 22.7693 1.40366 21.1651 1.40366C20.1625 1.40366 19.1599 2.67363 19.1599 4.52846C19.1599 4.99635 19.2267 5.43081 19.327 5.81514Z" fill="url(#paint2_linear_962_14434)"/>
<path d="M31.1126 7.43603V3.62611C31.1126 2.40627 30.6447 1.67102 29.8092 1.67102C29.0238 1.67102 28.4557 2.38956 28.3387 3.49243V7.65326C28.3387 8.05431 28.5727 8.47206 28.8734 8.72272L29.0405 8.83969V9.1906H24.8797V8.83969L25.0301 8.72272C25.3643 8.47206 25.5815 8.05431 25.5815 7.65326V2.59008C25.5815 2.18903 25.3643 1.75457 25.0301 1.52063L24.8797 1.40366V1.05274L27.6536 0.534726H28.3387V1.85483C28.9403 0.91906 29.9429 0.350913 31.1293 0.350913C32.9173 0.350913 33.8865 1.60418 33.8865 3.45901V7.78695C33.8865 8.22141 34.0202 8.38851 34.3544 8.38851C34.3544 8.38851 34.605 8.38851 34.7554 8.15457C34.7554 8.57232 34.1371 9.3577 32.8839 9.3577C31.781 9.3577 31.1126 8.75614 31.1126 7.43603Z" fill="url(#paint3_linear_962_14434)"/>
<path d="M43.1942 7.80366C43.1942 8.22141 43.3279 8.38851 43.6621 8.38851C43.6621 8.38851 43.9127 8.38851 44.0631 8.15457C44.0631 8.57232 43.4448 9.3577 42.1916 9.3577C41.2057 9.3577 40.554 8.87311 40.437 7.85379C39.8522 8.78956 38.8495 9.3577 37.6297 9.3577C35.8584 9.3577 34.8892 8.12115 34.8892 6.26632V2.59008C34.8892 2.18903 34.672 1.75457 34.3378 1.52063L34.1874 1.40366V1.05274L36.9613 0.534726H37.6464V6.08251C37.6464 7.31906 38.1143 8.05431 38.9498 8.05431C39.7352 8.05431 40.3033 7.36919 40.4203 6.28303V2.4564C40.3702 2.08877 40.1864 1.72115 39.8856 1.52063L39.7352 1.40366V1.05274L42.4924 0.534726H43.1942V7.80366Z" fill="url(#paint4_linear_962_14434)"/>
<path d="M48.6892 0.350913C51.1623 0.350913 52.2485 1.70444 52.2485 3.22507C52.2485 5.11332 50.6276 6.53368 48.4219 6.53368C47.9707 6.53368 47.5028 6.46684 47.0182 6.34987C47.436 7.16867 48.1712 7.63655 49.1237 7.63655C50.7279 7.63655 51.7138 6.31645 51.8809 5.73159H52.2318C51.6971 7.90392 50.2767 9.3577 48.0542 9.3577C45.6146 9.3577 43.8266 7.63655 43.8266 4.99635C43.8266 2.22245 45.7817 0.350913 48.6892 0.350913ZM46.7676 5.81514C50.2767 4.81253 50.2099 1.40366 48.6057 1.40366C47.6031 1.40366 46.6005 2.67363 46.6005 4.52846C46.6005 4.99635 46.6673 5.43081 46.7676 5.81514Z" fill="url(#paint5_linear_962_14434)"/>
<path d="M0.883551 21.611V15.0125H0V13.847H0.883551C2.08668 13.847 2.81984 13.2454 2.81984 12.0987H3.98538V13.847H5.09452V15.0125H3.98538V22.0057C3.98538 22.4945 4.15457 22.6825 4.51175 22.6825C4.51175 22.6825 4.81253 22.6825 4.96292 22.4193C4.96292 22.8893 4.28616 23.7728 2.85744 23.7728C1.61671 23.7728 0.883551 23.0961 0.883551 21.611Z" fill="url(#paint6_linear_962_14434)"/>
<path d="M9.89251 23.0585L10.0805 23.1901V23.5849H5.39956V23.1901L5.56875 23.0585C5.94473 22.7765 6.18912 22.3065 6.18912 21.8554V16.1593C6.18912 15.7081 5.94473 15.2193 5.56875 14.9561L5.39956 14.8245V14.4298L8.52019 13.847H9.29094V21.8554C9.29094 22.3065 9.55413 22.7765 9.89251 23.0585Z" fill="url(#paint7_linear_962_14434)"/>
<path d="M15.6196 13.6402C17.8191 13.6402 19.4546 14.7869 19.4546 16.2157C19.4546 17.212 18.7026 17.9452 17.7627 17.9452C16.8039 17.9452 16.052 17.212 16.052 16.2721C16.052 15.7269 16.2963 15.2569 16.6723 14.9561C16.5783 14.9185 16.3151 14.8245 15.958 14.8245C14.6232 14.8245 13.4953 16.2533 13.4953 18.3399C13.4953 20.4078 14.6044 21.8366 16.3339 21.8366C18.1386 21.8366 19.2478 20.3514 19.4358 19.6935H19.8306C19.323 21.7614 18.0822 23.7728 15.3376 23.7728C12.7809 23.7728 10.3747 21.9869 10.3747 18.8663C10.3747 15.9337 12.4802 13.6402 15.6196 13.6402Z" fill="url(#paint8_linear_962_14434)"/>
<path d="M25.9542 22.8893L24.1307 18.3775L23.7923 18.6595V21.8554C23.7923 22.3065 24.0555 22.7765 24.3939 23.0585L24.5818 23.1901V23.5849H19.9009V23.1901L20.0701 23.0585C20.4461 22.7765 20.6905 22.3065 20.6905 21.8554V13.3123C20.6905 12.8611 20.4461 12.3723 20.0701 12.1091L19.9009 11.9587V11.5828L23.0215 11H23.7923V17.4752L26.4617 15.3133C26.8189 15.0125 26.8565 14.599 26.5369 14.2606L26.5181 14.2418V13.847H29.714V14.2418L29.1876 14.4862C28.7928 14.6742 28.2664 15.0125 27.9093 15.3133L25.2022 17.5128L25.2398 17.5316C26.4617 17.9076 27.5897 18.9603 28.0784 20.1634L28.7928 21.9118C28.962 22.3441 29.3568 22.7389 29.7328 22.9645L30.1839 23.1901V23.5849H26.9881C26.5369 23.5849 26.1422 23.3029 25.9542 22.8893Z" fill="url(#paint9_linear_962_14434)"/>
<path d="M35.0117 13.6402C37.794 13.6402 39.0159 15.1629 39.0159 16.8736C39.0159 18.9979 37.1924 20.5958 34.711 20.5958C34.2034 20.5958 33.677 20.5206 33.1318 20.389C33.6018 21.3102 34.429 21.8366 35.5005 21.8366C37.3052 21.8366 38.4143 20.3514 38.6023 19.6935H38.9971C38.3955 22.1373 36.7976 23.7728 34.2974 23.7728C31.5527 23.7728 29.5412 21.8366 29.5412 18.8663C29.5412 15.7457 31.7407 13.6402 35.0117 13.6402ZM32.8499 19.7875C36.7976 18.6595 36.7224 14.8245 34.9177 14.8245C33.7898 14.8245 32.6619 16.2533 32.6619 18.3399C32.6619 18.8663 32.7371 19.3551 32.8499 19.7875Z" fill="url(#paint10_linear_962_14434)"/>
<path d="M40.2622 21.611V15.0125H39.3787V13.847H40.2622C41.4654 13.847 42.1985 13.2454 42.1985 12.0987H43.3641V13.847H44.4732V15.0125H43.3641V22.0057C43.3641 22.4945 43.5332 22.6825 43.8904 22.6825C43.8904 22.6825 44.1912 22.6825 44.3416 22.4193C44.3416 22.8893 43.6648 23.7728 42.2361 23.7728C40.9954 23.7728 40.2622 23.0961 40.2622 21.611Z" fill="url(#paint11_linear_962_14434)"/>
</g>
<defs>
<linearGradient id="paint0_linear_962_14434" x1="26.9899" y1="-0.208826" x2="26.9899" y2="24.8564" gradientUnits="userSpaceOnUse">
<stop stop-color="#FAFAFA"/>
<stop offset="1" stop-color="#E5E5E5"/>
</linearGradient>
<linearGradient id="paint1_linear_962_14434" x1="26.9899" y1="-0.208826" x2="26.9899" y2="24.8564" gradientUnits="userSpaceOnUse">
<stop stop-color="#FAFAFA"/>
<stop offset="1" stop-color="#E5E5E5"/>
</linearGradient>
<linearGradient id="paint2_linear_962_14434" x1="26.9899" y1="-0.208826" x2="26.9899" y2="24.8564" gradientUnits="userSpaceOnUse">
<stop stop-color="#FAFAFA"/>
<stop offset="1" stop-color="#E5E5E5"/>
</linearGradient>
<linearGradient id="paint3_linear_962_14434" x1="26.9899" y1="-0.208826" x2="26.9899" y2="24.8564" gradientUnits="userSpaceOnUse">
<stop stop-color="#FAFAFA"/>
<stop offset="1" stop-color="#E5E5E5"/>
</linearGradient>
<linearGradient id="paint4_linear_962_14434" x1="26.9899" y1="-0.208826" x2="26.9899" y2="24.8564" gradientUnits="userSpaceOnUse">
<stop stop-color="#FAFAFA"/>
<stop offset="1" stop-color="#E5E5E5"/>
</linearGradient>
<linearGradient id="paint5_linear_962_14434" x1="26.9899" y1="-0.208826" x2="26.9899" y2="24.8564" gradientUnits="userSpaceOnUse">
<stop stop-color="#FAFAFA"/>
<stop offset="1" stop-color="#E5E5E5"/>
</linearGradient>
<linearGradient id="paint6_linear_962_14434" x1="26.9899" y1="-0.208826" x2="26.9899" y2="24.8564" gradientUnits="userSpaceOnUse">
<stop stop-color="#FAFAFA"/>
<stop offset="1" stop-color="#E5E5E5"/>
</linearGradient>
<linearGradient id="paint7_linear_962_14434" x1="26.9899" y1="-0.208826" x2="26.9899" y2="24.8564" gradientUnits="userSpaceOnUse">
<stop stop-color="#FAFAFA"/>
<stop offset="1" stop-color="#E5E5E5"/>
</linearGradient>
<linearGradient id="paint8_linear_962_14434" x1="26.9899" y1="-0.208826" x2="26.9899" y2="24.8564" gradientUnits="userSpaceOnUse">
<stop stop-color="#FAFAFA"/>
<stop offset="1" stop-color="#E5E5E5"/>
</linearGradient>
<linearGradient id="paint9_linear_962_14434" x1="26.9899" y1="-0.208826" x2="26.9899" y2="24.8564" gradientUnits="userSpaceOnUse">
<stop stop-color="#FAFAFA"/>
<stop offset="1" stop-color="#E5E5E5"/>
</linearGradient>
<linearGradient id="paint10_linear_962_14434" x1="26.9899" y1="-0.208826" x2="26.9899" y2="24.8564" gradientUnits="userSpaceOnUse">
<stop stop-color="#FAFAFA"/>
<stop offset="1" stop-color="#E5E5E5"/>
</linearGradient>
<linearGradient id="paint11_linear_962_14434" x1="26.9899" y1="-0.208826" x2="26.9899" y2="24.8564" gradientUnits="userSpaceOnUse">
<stop stop-color="#FAFAFA"/>
<stop offset="1" stop-color="#E5E5E5"/>
</linearGradient>
</defs>
</svg>
