<svg preserveAspectRatio="none" width="100%" height="100%" overflow="visible" style="display: block;" viewBox="0 0 24 24" fill="none" xmlns="http://www.w3.org/2000/svg">
<g id="Icon">
<rect width="24" height="24" rx="8" fill="url(#paint0_linear_963_15467)"/>
<rect x="0.5" y="0.5" width="23" height="23" rx="7.5" stroke="var(--stroke-0, #FAFAFA)" stroke-opacity="0.1"/>
<path id="Vector" d="M9.5 15.5V8.13333L16 7V14.3667M9.5 15.25C9.5 16.2165 8.7165 17 7.75 17C6.7835 17 6 16.2165 6 15.25C6 14.2835 6.7835 13.5 7.75 13.5C8.7165 13.5 9.5 14.2835 9.5 15.25ZM16 14.25C16 15.2165 15.2165 16 14.25 16C13.2835 16 12.5 15.2165 12.5 14.25C12.5 13.2835 13.2835 12.5 14.25 12.5C15.2165 12.5 16 13.2835 16 14.25Z" stroke="var(--stroke-0, #FDF4FF)" stroke-width="1.5" stroke-linecap="round" stroke-linejoin="round"/>
</g>
<defs>
<linearGradient id="paint0_linear_963_15467" x1="3.9" y1="-1.8" x2="14.1" y2="27.9" gradientUnits="userSpaceOnUse">
<stop stop-color="#FAFAFA" stop-opacity="0.1"/>
<stop offset="1" stop-color="#FAFAFA" stop-opacity="0.05"/>
</linearGradient>
</defs>
</svg>
