<svg preserveAspectRatio="none" width="100%" height="100%" overflow="visible" style="display: block;" viewBox="0 0 24 24" fill="none" xmlns="http://www.w3.org/2000/svg">
<g id="Icon">
<rect width="24" height="24" rx="8" fill="url(#paint0_linear_963_15485)"/>
<rect x="0.5" y="0.5" width="23" height="23" rx="7.5" stroke="var(--stroke-0, #FAFAFA)" stroke-opacity="0.1"/>
<path id="Vector" d="M9 7V17M7 9.5H9M7 12H17M7 14.5H9M14.5 7V17M14.5 9.5H17M14.5 14.5H17M8.11111 7H15.8889C16.5025 7 17 7.49746 17 8.11111V15.8889C17 16.5025 16.5025 17 15.8889 17H8.11111C7.49746 17 7 16.5025 7 15.8889V8.11111C7 7.49746 7.49746 7 8.11111 7Z" stroke="var(--stroke-0, #FEF2F2)" stroke-width="1.5" stroke-linecap="round" stroke-linejoin="round"/>
</g>
<defs>
<linearGradient id="paint0_linear_963_15485" x1="3.9" y1="-1.8" x2="14.1" y2="27.9" gradientUnits="userSpaceOnUse">
<stop stop-color="#FAFAFA" stop-opacity="0.1"/>
<stop offset="1" stop-color="#FAFAFA" stop-opacity="0.05"/>
</linearGradient>
</defs>
</svg>
