<svg preserveAspectRatio="none" width="100%" height="100%" overflow="visible" style="display: block;" viewBox="0 0 24 24" fill="none" xmlns="http://www.w3.org/2000/svg">
<g id="Icon">
<rect width="24" height="24" rx="8" fill="url(#paint0_linear_963_15461)"/>
<rect x="0.5" y="0.5" width="23" height="23" rx="7.5" stroke="var(--stroke-0, #FAFAFA)" stroke-opacity="0.1"/>
<path id="Vector" d="M7 10.2418C7.00001 9.5878 7.18568 8.94921 7.53247 8.41034C7.87927 7.87148 8.37088 7.4577 8.94238 7.22365C9.51388 6.98959 10.1384 6.94628 10.7334 7.09944C11.3284 7.25259 11.866 7.59499 12.275 8.08144C12.3038 8.11435 12.3387 8.1406 12.3774 8.15854C12.4161 8.17648 12.4578 8.18574 12.5 8.18574C12.5422 8.18574 12.5839 8.17648 12.6226 8.15854C12.6613 8.1406 12.6961 8.11435 12.7249 8.08144C13.1327 7.59183 13.6704 7.24655 14.2664 7.09154C14.8624 6.93652 15.4884 6.97914 16.0612 7.2137C16.6339 7.44827 17.1262 7.86367 17.4726 8.40461C17.8189 8.94554 18.0029 9.58636 18 10.2418C18 11.5876 17.175 12.5925 16.35 13.4741L13.3294 16.5964C13.2269 16.7222 13.1005 16.8232 12.9587 16.8928C12.8169 16.9624 12.6628 16.9989 12.5067 17C12.3507 17.001 12.1962 16.9666 12.0535 16.8989C11.9109 16.8313 11.7834 16.732 11.6794 16.6076L8.64999 13.4741C7.825 12.5925 7 11.5935 7 10.2418Z" stroke="var(--stroke-0, #F0FDF4)" stroke-width="1.5" stroke-linecap="round" stroke-linejoin="round"/>
</g>
<defs>
<linearGradient id="paint0_linear_963_15461" x1="3.9" y1="-1.8" x2="14.1" y2="27.9" gradientUnits="userSpaceOnUse">
<stop stop-color="#FAFAFA" stop-opacity="0.1"/>
<stop offset="1" stop-color="#FAFAFA" stop-opacity="0.05"/>
</linearGradient>
</defs>
</svg>
