<svg preserveAspectRatio="none" width="100%" height="100%" overflow="visible" style="display: block;" viewBox="0 0 40 40" fill="none" xmlns="http://www.w3.org/2000/svg">
<g id="Icon">
<rect width="40" height="40" rx="12" fill="url(#paint0_linear_963_15476)"/>
<rect x="0.5" y="0.5" width="39" height="39" rx="11.5" stroke="var(--stroke-0, #FAFAFA)" stroke-opacity="0.1"/>
<path id="Vector" d="M29.9992 20.5325C29.895 22.4629 29.2339 24.3218 28.0957 25.8844C26.9576 27.4471 25.3912 28.6466 23.5859 29.3381C21.7806 30.0295 19.8137 30.1832 17.9229 29.7806C16.0321 29.378 14.2984 28.4363 12.9313 27.0694C11.5643 25.7025 10.6224 23.9689 10.2196 22.0781C9.81683 20.1874 9.97033 18.2204 10.6616 16.415C11.3528 14.6096 12.5522 13.0431 14.1147 11.9048C15.6772 10.7665 17.536 10.1052 19.4664 10.0008C19.9167 9.97635 20.1524 10.5123 19.9134 10.8936C19.1138 12.1729 18.7715 13.6854 18.9422 15.1843C19.1129 16.6832 19.7865 18.08 20.8533 19.1468C21.92 20.2135 23.3168 20.8872 24.8157 21.0579C26.3146 21.2286 27.8271 20.8862 29.1064 20.0866C29.4888 19.8476 30.0237 20.0822 29.9992 20.5325Z" stroke="var(--stroke-0, #FAF5FF)" stroke-width="2.5" stroke-linecap="round" stroke-linejoin="round"/>
</g>
<defs>
<linearGradient id="paint0_linear_963_15476" x1="6.5" y1="-3" x2="23.5" y2="46.5" gradientUnits="userSpaceOnUse">
<stop stop-color="#FAFAFA" stop-opacity="0.1"/>
<stop offset="1" stop-color="#FAFAFA" stop-opacity="0.05"/>
</linearGradient>
</defs>
</svg>
