<svg preserveAspectRatio="none" width="100%" height="100%" overflow="visible" style="display: block;" viewBox="0 0 40 40" fill="none" xmlns="http://www.w3.org/2000/svg">
<g id="Icon">
<rect width="40" height="40" rx="12" fill="url(#paint0_linear_963_15455)"/>
<rect x="0.5" y="0.5" width="39" height="39" rx="11.5" stroke="var(--stroke-0, #FAFAFA)" stroke-opacity="0.1"/>
<path id="Vector" d="M20 23C21.1046 23 22 22.1046 22 21C22 19.8954 21.1046 19 20 19C18.8954 19 18 19.8954 18 21C18 22.1046 18.8954 23 20 23ZM20 23L17 31M20 23L23 31M20 9V13M14 24L10 26M30 14L26 16M14 16L10 14M30 26L26 24M16 31H24M26 27C27.3586 25.7623 28.3162 24.1336 28.7461 22.3293C29.176 20.5251 29.0579 18.6305 28.4075 16.8961C27.7572 15.1618 26.6051 13.6694 25.1038 12.6166C23.6025 11.5637 21.8227 11 20 11C18.1773 11 16.3975 11.5637 14.8962 12.6166C13.3949 13.6694 12.2428 15.1618 11.5925 16.8961C10.9421 18.6305 10.824 20.5251 11.2539 22.3293C11.6838 24.1336 12.6414 25.7623 14 27" stroke="var(--stroke-0, #EFF6FF)" stroke-width="2.5" stroke-linecap="round" stroke-linejoin="round"/>
</g>
<defs>
<linearGradient id="paint0_linear_963_15455" x1="6.5" y1="-3" x2="23.5" y2="46.5" gradientUnits="userSpaceOnUse">
<stop stop-color="#FAFAFA" stop-opacity="0.1"/>
<stop offset="1" stop-color="#FAFAFA" stop-opacity="0.05"/>
</linearGradient>
</defs>
</svg>
