<svg preserveAspectRatio="none" width="100%" height="100%" overflow="visible" style="display: block;" viewBox="0 0 40 40" fill="none" xmlns="http://www.w3.org/2000/svg">
<g id="Icon">
<rect width="40" height="40" rx="12" fill="url(#paint0_linear_963_15458)"/>
<rect x="0.5" y="0.5" width="39" height="39" rx="11.5" stroke="var(--stroke-0, #FAFAFA)" stroke-opacity="0.1"/>
<path id="Vector" d="M9 17.4836C9.00002 16.1756 9.37135 14.8984 10.0649 13.8207C10.7585 12.743 11.7418 11.9154 12.8848 11.4473C14.0278 10.9792 15.2768 10.8926 16.4668 11.1989C17.6568 11.5052 18.7319 12.19 19.5501 13.1629C19.6077 13.2287 19.6774 13.2812 19.7548 13.3171C19.8321 13.353 19.9156 13.3715 20 13.3715C20.0843 13.3715 20.1678 13.353 20.2452 13.3171C20.3226 13.2812 20.3922 13.2287 20.4499 13.1629C21.2654 12.1837 22.3408 11.4931 23.5328 11.1831C24.7247 10.873 25.9768 10.9583 27.1223 11.4274C28.2678 11.8965 29.2525 12.7273 29.9452 13.8092C30.6379 14.8911 31.0058 16.1727 30.9999 17.4836C30.9999 20.1752 29.3499 22.1851 27.6999 23.9481L21.6588 30.1929C21.4538 30.4444 21.2011 30.6465 20.9174 30.7856C20.6337 30.9248 20.3256 30.9978 20.0135 31C19.7014 31.0021 19.3924 30.9332 19.1071 30.7979C18.8218 30.6626 18.5667 30.464 18.3588 30.2152L12.3 23.9481C10.65 22.1851 9 20.1869 9 17.4836Z" stroke="var(--stroke-0, #F0FDF4)" stroke-width="2.5" stroke-linecap="round" stroke-linejoin="round"/>
</g>
<defs>
<linearGradient id="paint0_linear_963_15458" x1="6.5" y1="-3" x2="23.5" y2="46.5" gradientUnits="userSpaceOnUse">
<stop stop-color="#FAFAFA" stop-opacity="0.1"/>
<stop offset="1" stop-color="#FAFAFA" stop-opacity="0.05"/>
</linearGradient>
</defs>
</svg>
