<svg preserveAspectRatio="none" width="100%" height="100%" overflow="visible" style="display: block;" viewBox="0 0 35.2548 36" fill="none" xmlns="http://www.w3.org/2000/svg">
<g id="Exclude">
<path d="M33.7548 0C34.5832 4.18454e-05 35.2548 0.671599 35.2548 1.5V34.5C35.2548 35.3284 34.5832 36 33.7548 36H1.5009C0.431631 35.9998 -0.293712 34.9125 0.116139 33.9248L13.8095 0.924805C14.0419 0.364881 14.589 0 15.1952 0H33.7548ZM13.3603 18C12.8034 18.0001 12.2697 18.2261 11.8759 18.6279C11.4822 19.0297 11.2607 19.5744 11.2607 20.1426V21.5361C11.2609 21.95 11.6011 22.2763 12.0029 22.376C12.5603 22.514 13.0759 22.8068 13.4882 23.2275C14.0788 23.8303 14.4111 24.6477 14.4111 25.5C14.4111 26.3523 14.0788 27.1697 13.4882 27.7725C13.0759 28.1932 12.5603 28.486 12.0029 28.624C11.6011 28.7237 11.2609 29.05 11.2607 29.4639V30.8574C11.2607 31.4256 11.4822 31.9703 11.8759 32.3721C12.2697 32.7739 12.8034 32.9999 13.3603 33H30.1611C30.7178 32.9999 31.2517 32.7738 31.6454 32.3721C32.0391 31.9703 32.2606 31.4256 32.2607 30.8574V29.4639C32.2604 29.0499 31.9194 28.7235 31.5175 28.624C30.9601 28.486 30.4454 28.1931 30.0331 27.7725C29.4425 27.1697 29.1103 26.3524 29.1103 25.5C29.1103 24.6476 29.4425 23.8303 30.0331 23.2275C30.4454 22.8069 30.9601 22.514 31.5175 22.376C31.9194 22.2765 32.2604 21.9501 32.2607 21.5361V20.1426C32.2606 19.5744 32.0391 19.0297 31.6454 18.6279C31.2517 18.2262 30.7178 18.0001 30.1611 18H13.3603Z" fill="var(--fill-0, #D9D9D9)"/>
<path d="M33.7548 0C34.5832 4.18454e-05 35.2548 0.671599 35.2548 1.5V34.5C35.2548 35.3284 34.5832 36 33.7548 36H1.5009C0.431631 35.9998 -0.293712 34.9125 0.116139 33.9248L13.8095 0.924805C14.0419 0.364881 14.589 0 15.1952 0H33.7548ZM13.3603 18C12.8034 18.0001 12.2697 18.2261 11.8759 18.6279C11.4822 19.0297 11.2607 19.5744 11.2607 20.1426V21.5361C11.2609 21.95 11.6011 22.2763 12.0029 22.376C12.5603 22.514 13.0759 22.8068 13.4882 23.2275C14.0788 23.8303 14.4111 24.6477 14.4111 25.5C14.4111 26.3523 14.0788 27.1697 13.4882 27.7725C13.0759 28.1932 12.5603 28.486 12.0029 28.624C11.6011 28.7237 11.2609 29.05 11.2607 29.4639V30.8574C11.2607 31.4256 11.4822 31.9703 11.8759 32.3721C12.2697 32.7739 12.8034 32.9999 13.3603 33H30.1611C30.7178 32.9999 31.2517 32.7738 31.6454 32.3721C32.0391 31.9703 32.2606 31.4256 32.2607 30.8574V29.4639C32.2604 29.0499 31.9194 28.7235 31.5175 28.624C30.9601 28.486 30.4454 28.1931 30.0331 27.7725C29.4425 27.1697 29.1103 26.3524 29.1103 25.5C29.1103 24.6476 29.4425 23.8303 30.0331 23.2275C30.4454 22.8069 30.9601 22.514 31.5175 22.376C31.9194 22.2765 32.2604 21.9501 32.2607 21.5361V20.1426C32.2606 19.5744 32.0391 19.0297 31.6454 18.6279C31.2517 18.2262 30.7178 18.0001 30.1611 18H13.3603Z" fill="url(#paint0_linear_962_14436)"/>
</g>
<defs>
<linearGradient id="paint0_linear_962_14436" x1="17.6273" y1="0" x2="17.6273" y2="36" gradientUnits="userSpaceOnUse">
<stop stop-color="#4F46E5"/>
<stop offset="1" stop-color="#4338CA"/>
</linearGradient>
</defs>
</svg>
