<svg preserveAspectRatio="none" width="100%" height="100%" overflow="visible" style="display: block;" viewBox="0 0 23.503 24" fill="none" xmlns="http://www.w3.org/2000/svg">
<g id="Exclude">
<path d="M22.503 0C23.0553 0 23.503 0.447715 23.503 1V23C23.503 23.5523 23.0553 24 22.503 24H1.00107C0.288248 24 -0.195686 23.2756 0.0772459 22.6172L9.20615 0.617188C9.36108 0.243841 9.72577 1.62162e-05 10.13 0H22.503ZM8.90732 12C8.53613 12 8.17962 12.1502 7.91709 12.418C7.65454 12.6859 7.50693 13.0498 7.50693 13.4287V14.3574C7.50709 14.6334 7.7341 14.8516 8.00205 14.918C8.37369 15.01 8.7174 15.2039 8.99228 15.4844C9.38611 15.8862 9.60752 16.4317 9.60752 17C9.60752 17.5683 9.38611 18.1138 8.99228 18.5156C8.7174 18.7961 8.37369 18.99 8.00205 19.082C7.7341 19.1484 7.50709 19.3666 7.50693 19.6426V20.5713C7.50693 20.9502 7.65454 21.3141 7.91709 21.582C8.17962 21.8498 8.53613 22 8.90732 22H20.1075C20.4785 21.9999 20.8344 21.8496 21.0968 21.582C21.3593 21.3141 21.5069 20.9502 21.5069 20.5713V19.6426C21.5068 19.3666 21.2798 19.1484 21.0118 19.082C20.6404 18.99 20.2973 18.7959 20.0226 18.5156C19.6287 18.1138 19.4073 17.5683 19.4073 17C19.4073 16.4317 19.6287 15.8862 20.0226 15.4844C20.2973 15.2041 20.6404 15.01 21.0118 14.918C21.2798 14.8516 21.5068 14.6334 21.5069 14.3574V13.4287C21.5069 13.0498 21.3593 12.6859 21.0968 12.418C20.8344 12.1504 20.4785 12.0001 20.1075 12H8.90732Z" fill="var(--fill-0, #D9D9D9)"/>
<path d="M22.503 0C23.0553 0 23.503 0.447715 23.503 1V23C23.503 23.5523 23.0553 24 22.503 24H1.00107C0.288248 24 -0.195686 23.2756 0.0772459 22.6172L9.20615 0.617188C9.36108 0.243841 9.72577 1.62162e-05 10.13 0H22.503ZM8.90732 12C8.53613 12 8.17962 12.1502 7.91709 12.418C7.65454 12.6859 7.50693 13.0498 7.50693 13.4287V14.3574C7.50709 14.6334 7.7341 14.8516 8.00205 14.918C8.37369 15.01 8.7174 15.2039 8.99228 15.4844C9.38611 15.8862 9.60752 16.4317 9.60752 17C9.60752 17.5683 9.38611 18.1138 8.99228 18.5156C8.7174 18.7961 8.37369 18.99 8.00205 19.082C7.7341 19.1484 7.50709 19.3666 7.50693 19.6426V20.5713C7.50693 20.9502 7.65454 21.3141 7.91709 21.582C8.17962 21.8498 8.53613 22 8.90732 22H20.1075C20.4785 21.9999 20.8344 21.8496 21.0968 21.582C21.3593 21.3141 21.5069 20.9502 21.5069 20.5713V19.6426C21.5068 19.3666 21.2798 19.1484 21.0118 19.082C20.6404 18.99 20.2973 18.7959 20.0226 18.5156C19.6287 18.1138 19.4073 17.5683 19.4073 17C19.4073 16.4317 19.6287 15.8862 20.0226 15.4844C20.2973 15.2041 20.6404 15.01 21.0118 14.918C21.2798 14.8516 21.5068 14.6334 21.5069 14.3574V13.4287C21.5069 13.0498 21.3593 12.6859 21.0968 12.418C20.8344 12.1504 20.4785 12.0001 20.1075 12H8.90732Z" fill="url(#paint0_linear_962_14440)"/>
</g>
<defs>
<linearGradient id="paint0_linear_962_14440" x1="11.7516" y1="0" x2="11.7516" y2="24" gradientUnits="userSpaceOnUse">
<stop stop-color="#4F46E5"/>
<stop offset="1" stop-color="#4338CA"/>
</linearGradient>
</defs>
</svg>
